<svg aria-roledescription="er" viewBox="0 0 340 364" style="max-width: 340px; background-color: white;" xmlns:xlink="http://www.w3.org/1999/xlink" xmlns="http://www.w3.org/2000/svg" width="100%" id="mermaid-0"><style>#mermaid-0{font-family:"trebuchet ms",verdana,arial,sans-serif;font-size:16px;fill:#000000;}#mermaid-0 .error-icon{fill:#552222;}#mermaid-0 .error-text{fill:#552222;stroke:#552222;}#mermaid-0 .edge-thickness-normal{stroke-width:2px;}#mermaid-0 .edge-thickness-thick{stroke-width:3.5px;}#mermaid-0 .edge-pattern-solid{stroke-dasharray:0;}#mermaid-0 .edge-pattern-dashed{stroke-dasharray:3;}#mermaid-0 .edge-pattern-dotted{stroke-dasharray:2;}#mermaid-0 .marker{fill:#000000;stroke:#000000;}#mermaid-0 .marker.cross{stroke:#000000;}#mermaid-0 svg{font-family:"trebuchet ms",verdana,arial,sans-serif;font-size:16px;}#mermaid-0 .entityBox{fill:#cde498;stroke:#13540c;}#mermaid-0 .attributeBoxOdd{fill:#ffffff;stroke:#13540c;}#mermaid-0 .attributeBoxEven{fill:#f2f2f2;stroke:#13540c;}#mermaid-0 .relationshipLabelBox{fill:hsl(78.1578947368, 58.4615384615%, 84.5098039216%);opacity:0.7;background-color:hsl(78.1578947368, 58.4615384615%, 84.5098039216%);}#mermaid-0 .relationshipLabelBox rect{opacity:0.5;}#mermaid-0 .relationshipLine{stroke:#000000;}#mermaid-0 .entityTitleText{text-anchor:middle;font-size:18px;fill:#000000;}#mermaid-0 :root{--mermaid-font-family:"trebuchet ms",verdana,arial,sans-serif;}</style><g/><defs><marker orient="auto" markerHeight="18" markerWidth="18" refY="9" refX="0" id="ONLY_ONE_START"><path d="M9,0 L9,18 M15,0 L15,18" fill="none" stroke="gray"/></marker></defs><defs><marker orient="auto" markerHeight="18" markerWidth="18" refY="9" refX="18" id="ONLY_ONE_END"><path d="M3,0 L3,18 M9,0 L9,18" fill="none" stroke="gray"/></marker></defs><defs><marker orient="auto" markerHeight="18" markerWidth="30" refY="9" refX="0" id="ZERO_OR_ONE_START"><circle r="6" cy="9" cx="21" fill="white" stroke="gray"/><path d="M9,0 L9,18" fill="none" stroke="gray"/></marker></defs><defs><marker orient="auto" markerHeight="18" markerWidth="30" refY="9" refX="30" id="ZERO_OR_ONE_END"><circle r="6" cy="9" cx="9" fill="white" stroke="gray"/><path d="M21,0 L21,18" fill="none" stroke="gray"/></marker></defs><defs><marker orient="auto" markerHeight="36" markerWidth="45" refY="18" refX="18" id="ONE_OR_MORE_START"><path d="M0,18 Q 18,0 36,18 Q 18,36 0,18 M42,9 L42,27" fill="none" stroke="gray"/></marker></defs><defs><marker orient="auto" markerHeight="36" markerWidth="45" refY="18" refX="27" id="ONE_OR_MORE_END"><path d="M3,9 L3,27 M9,18 Q27,0 45,18 Q27,36 9,18" fill="none" stroke="gray"/></marker></defs><defs><marker orient="auto" markerHeight="36" markerWidth="57" refY="18" refX="18" id="ZERO_OR_MORE_START"><circle r="6" cy="18" cx="48" fill="white" stroke="gray"/><path d="M0,18 Q18,0 36,18 Q18,36 0,18" fill="none" stroke="gray"/></marker></defs><defs><marker orient="auto" markerHeight="36" markerWidth="57" refY="18" refX="39" id="ZERO_OR_MORE_END"><circle r="6" cy="18" cx="9" fill="white" stroke="gray"/><path d="M21,18 Q39,0 57,18 Q39,36 21,18" fill="none" stroke="gray"/></marker></defs><path style="stroke: gray; fill: none;" marker-start="url(#ZERO_OR_MORE_START)" marker-end="url(#ONLY_ONE_END)" d="M109.0625,176L102.55208333333333,184.33333333333334C96.04166666666667,192.66666666666666,83.02083333333333,209.33333333333334,76.51041666666667,226C70,242.66666666666666,70,259.3333333333333,70,267.6666666666667L70,276" class="er relationshipLine"/><path style="stroke: gray; fill: none;" marker-start="url(#ZERO_OR_MORE_START)" marker-end="url(#ONLY_ONE_END)" d="M230.9375,176L237.44791666666666,184.33333333333334C243.95833333333334,192.66666666666666,256.9791666666667,209.33333333333334,263.4895833333333,226C270,242.66666666666666,270,259.3333333333333,270,267.6666666666667L270,276" class="er relationshipLine"/><g transform="translate(20,276 )" id="entity-permissoes-feaface7-484f-4fd3-b05d-39f9d7806bb5"><rect height="68" width="100" y="0" x="0" class="er entityBox"/><text style="dominant-baseline: middle; text-anchor: middle; font-size: 12px;" transform="translate(50,12)" y="0" x="0" id="text-entity-permissoes-feaface7-484f-4fd3-b05d-39f9d7806bb5" class="er entityLabel">permissoes</text><rect height="22" width="41.21942138671875" y="24" x="0" class="er attributeBoxOdd"/><text style="dominant-baseline: middle; font-size: 10.2px;" transform="translate(5,35)" y="0" x="0" id="text-entity-permissoes-feaface7-484f-4fd3-b05d-39f9d7806bb5-attr-1-type" class="er entityLabel">String</text><rect height="22" width="32.26953125" y="24" x="41.21942138671875" class="er attributeBoxOdd"/><text style="dominant-baseline: middle; font-size: 10.2px;" transform="translate(46.21942138671875,35)" y="0" x="0" id="text-entity-permissoes-feaface7-484f-4fd3-b05d-39f9d7806bb5-attr-1-name" class="er entityLabel">id</text><rect height="22" width="26.51104736328125" y="24" x="73.48895263671875" class="er attributeBoxOdd"/><text style="dominant-baseline: middle; font-size: 10.2px;" transform="translate(78.48895263671875,35)" y="0" x="0" id="text-entity-permissoes-feaface7-484f-4fd3-b05d-39f9d7806bb5-attr-1-key" class="er entityLabel">PK</text><rect height="22" width="41.21942138671875" y="46" x="0" class="er attributeBoxEven"/><text style="dominant-baseline: middle; font-size: 10.2px;" transform="translate(5,57)" y="0" x="0" id="text-entity-permissoes-feaface7-484f-4fd3-b05d-39f9d7806bb5-attr-2-type" class="er entityLabel">String</text><rect height="22" width="32.26953125" y="46" x="41.21942138671875" class="er attributeBoxEven"/><text style="dominant-baseline: middle; font-size: 10.2px;" transform="translate(46.21942138671875,57)" y="0" x="0" id="text-entity-permissoes-feaface7-484f-4fd3-b05d-39f9d7806bb5-attr-2-name" class="er entityLabel">role</text><rect height="22" width="26.51104736328125" y="46" x="73.48895263671875" class="er attributeBoxEven"/><text style="dominant-baseline: middle; font-size: 10.2px;" transform="translate(78.48895263671875,57)" y="0" x="0" id="text-entity-permissoes-feaface7-484f-4fd3-b05d-39f9d7806bb5-attr-2-key" class="er entityLabel"/></g><g transform="translate(220,276 )" id="entity-clientes-9f1753d3-2a6c-4575-92f5-0747ea0c6aa3"><rect height="68" width="100" y="0" x="0" class="er entityBox"/><text style="dominant-baseline: middle; text-anchor: middle; font-size: 12px;" transform="translate(50,12)" y="0" x="0" id="text-entity-clientes-9f1753d3-2a6c-4575-92f5-0747ea0c6aa3" class="er entityLabel">clientes</text><rect height="22" width="38.86365763346354" y="24" x="0" class="er attributeBoxOdd"/><text style="dominant-baseline: middle; font-size: 10.2px;" transform="translate(5,35)" y="0" x="0" id="text-entity-clientes-9f1753d3-2a6c-4575-92f5-0747ea0c6aa3-attr-1-type" class="er entityLabel">String</text><rect height="22" width="36.981058756510414" y="24" x="38.86365763346354" class="er attributeBoxOdd"/><text style="dominant-baseline: middle; font-size: 10.2px;" transform="translate(43.86365763346354,35)" y="0" x="0" id="text-entity-clientes-9f1753d3-2a6c-4575-92f5-0747ea0c6aa3-attr-1-name" class="er entityLabel">id</text><rect height="22" width="24.155283610026043" y="24" x="75.84471638997395" class="er attributeBoxOdd"/><text style="dominant-baseline: middle; font-size: 10.2px;" transform="translate(80.84471638997395,35)" y="0" x="0" id="text-entity-clientes-9f1753d3-2a6c-4575-92f5-0747ea0c6aa3-attr-1-key" class="er entityLabel">PK</text><rect height="22" width="38.86365763346354" y="46" x="0" class="er attributeBoxEven"/><text style="dominant-baseline: middle; font-size: 10.2px;" transform="translate(5,57)" y="0" x="0" id="text-entity-clientes-9f1753d3-2a6c-4575-92f5-0747ea0c6aa3-attr-2-type" class="er entityLabel">String</text><rect height="22" width="36.981058756510414" y="46" x="38.86365763346354" class="er attributeBoxEven"/><text style="dominant-baseline: middle; font-size: 10.2px;" transform="translate(43.86365763346354,57)" y="0" x="0" id="text-entity-clientes-9f1753d3-2a6c-4575-92f5-0747ea0c6aa3-attr-2-name" class="er entityLabel">nome</text><rect height="22" width="24.155283610026043" y="46" x="75.84471638997395" class="er attributeBoxEven"/><text style="dominant-baseline: middle; font-size: 10.2px;" transform="translate(80.84471638997395,57)" y="0" x="0" id="text-entity-clientes-9f1753d3-2a6c-4575-92f5-0747ea0c6aa3-attr-2-key" class="er entityLabel"/></g><g transform="translate(102.30695343017578,20 )" id="entity-usuarios-100a5f0f-ee96-4461-a8f5-06afdde5cb9d"><rect height="156" width="135.38609313964844" y="0" x="0" class="er entityBox"/><text style="dominant-baseline: middle; text-anchor: middle; font-size: 12px;" transform="translate(67.69304656982422,12)" y="0" x="0" id="text-entity-usuarios-100a5f0f-ee96-4461-a8f5-06afdde5cb9d" class="er entityLabel">usuarios</text><rect height="22" width="37.39605712890625" y="24" x="0" class="er attributeBoxOdd"/><text style="dominant-baseline: middle; font-size: 10.2px;" transform="translate(5,35)" y="0" x="0" id="text-entity-usuarios-100a5f0f-ee96-4461-a8f5-06afdde5cb9d-attr-1-type" class="er entityLabel">String</text><rect height="22" width="75.30235290527344" y="24" x="37.39605712890625" class="er attributeBoxOdd"/><text style="dominant-baseline: middle; font-size: 10.2px;" transform="translate(42.39605712890625,35)" y="0" x="0" id="text-entity-usuarios-100a5f0f-ee96-4461-a8f5-06afdde5cb9d-attr-1-name" class="er entityLabel">id</text><rect height="22" width="22.68768310546875" y="24" x="112.69841003417969" class="er attributeBoxOdd"/><text style="dominant-baseline: middle; font-size: 10.2px;" transform="translate(117.69841003417969,35)" y="0" x="0" id="text-entity-usuarios-100a5f0f-ee96-4461-a8f5-06afdde5cb9d-attr-1-key" class="er entityLabel">PK</text><rect height="22" width="37.39605712890625" y="46" x="0" class="er attributeBoxEven"/><text style="dominant-baseline: middle; font-size: 10.2px;" transform="translate(5,57)" y="0" x="0" id="text-entity-usuarios-100a5f0f-ee96-4461-a8f5-06afdde5cb9d-attr-2-type" class="er entityLabel">String</text><rect height="22" width="75.30235290527344" y="46" x="37.39605712890625" class="er attributeBoxEven"/><text style="dominant-baseline: middle; font-size: 10.2px;" transform="translate(42.39605712890625,57)" y="0" x="0" id="text-entity-usuarios-100a5f0f-ee96-4461-a8f5-06afdde5cb9d-attr-2-name" class="er entityLabel">nome</text><rect height="22" width="22.68768310546875" y="46" x="112.69841003417969" class="er attributeBoxEven"/><text style="dominant-baseline: middle; font-size: 10.2px;" transform="translate(117.69841003417969,57)" y="0" x="0" id="text-entity-usuarios-100a5f0f-ee96-4461-a8f5-06afdde5cb9d-attr-2-key" class="er entityLabel"/><rect height="22" width="37.39605712890625" y="68" x="0" class="er attributeBoxOdd"/><text style="dominant-baseline: middle; font-size: 10.2px;" transform="translate(5,79)" y="0" x="0" id="text-entity-usuarios-100a5f0f-ee96-4461-a8f5-06afdde5cb9d-attr-3-type" class="er entityLabel">String</text><rect height="22" width="75.30235290527344" y="68" x="37.39605712890625" class="er attributeBoxOdd"/><text style="dominant-baseline: middle; font-size: 10.2px;" transform="translate(42.39605712890625,79)" y="0" x="0" id="text-entity-usuarios-100a5f0f-ee96-4461-a8f5-06afdde5cb9d-attr-3-name" class="er entityLabel">email</text><rect height="22" width="22.68768310546875" y="68" x="112.69841003417969" class="er attributeBoxOdd"/><text style="dominant-baseline: middle; font-size: 10.2px;" transform="translate(117.69841003417969,79)" y="0" x="0" id="text-entity-usuarios-100a5f0f-ee96-4461-a8f5-06afdde5cb9d-attr-3-key" class="er entityLabel"/><rect height="22" width="37.39605712890625" y="90" x="0" class="er attributeBoxEven"/><text style="dominant-baseline: middle; font-size: 10.2px;" transform="translate(5,101)" y="0" x="0" id="text-entity-usuarios-100a5f0f-ee96-4461-a8f5-06afdde5cb9d-attr-4-type" class="er entityLabel">String</text><rect height="22" width="75.30235290527344" y="90" x="37.39605712890625" class="er attributeBoxEven"/><text style="dominant-baseline: middle; font-size: 10.2px;" transform="translate(42.39605712890625,101)" y="0" x="0" id="text-entity-usuarios-100a5f0f-ee96-4461-a8f5-06afdde5cb9d-attr-4-name" class="er entityLabel">password</text><rect height="22" width="22.68768310546875" y="90" x="112.69841003417969" class="er attributeBoxEven"/><text style="dominant-baseline: middle; font-size: 10.2px;" transform="translate(117.69841003417969,101)" y="0" x="0" id="text-entity-usuarios-100a5f0f-ee96-4461-a8f5-06afdde5cb9d-attr-4-key" class="er entityLabel"/><rect height="22" width="37.39605712890625" y="112" x="0" class="er attributeBoxOdd"/><text style="dominant-baseline: middle; font-size: 10.2px;" transform="translate(5,123)" y="0" x="0" id="text-entity-usuarios-100a5f0f-ee96-4461-a8f5-06afdde5cb9d-attr-5-type" class="er entityLabel">String</text><rect height="22" width="75.30235290527344" y="112" x="37.39605712890625" class="er attributeBoxOdd"/><text style="dominant-baseline: middle; font-size: 10.2px;" transform="translate(42.39605712890625,123)" y="0" x="0" id="text-entity-usuarios-100a5f0f-ee96-4461-a8f5-06afdde5cb9d-attr-5-name" class="er entityLabel">departamento</text><rect height="22" width="22.68768310546875" y="112" x="112.69841003417969" class="er attributeBoxOdd"/><text style="dominant-baseline: middle; font-size: 10.2px;" transform="translate(117.69841003417969,123)" y="0" x="0" id="text-entity-usuarios-100a5f0f-ee96-4461-a8f5-06afdde5cb9d-attr-5-key" class="er entityLabel"/><rect height="22" width="37.39605712890625" y="134" x="0" class="er attributeBoxEven"/><text style="dominant-baseline: middle; font-size: 10.2px;" transform="translate(5,145)" y="0" x="0" id="text-entity-usuarios-100a5f0f-ee96-4461-a8f5-06afdde5cb9d-attr-6-type" class="er entityLabel">String</text><rect height="22" width="75.30235290527344" y="134" x="37.39605712890625" class="er attributeBoxEven"/><text style="dominant-baseline: middle; font-size: 10.2px;" transform="translate(42.39605712890625,145)" y="0" x="0" id="text-entity-usuarios-100a5f0f-ee96-4461-a8f5-06afdde5cb9d-attr-6-name" class="er entityLabel">url_foto</text><rect height="22" width="22.68768310546875" y="134" x="112.69841003417969" class="er attributeBoxEven"/><text style="dominant-baseline: middle; font-size: 10.2px;" transform="translate(117.69841003417969,145)" y="0" x="0" id="text-entity-usuarios-100a5f0f-ee96-4461-a8f5-06afdde5cb9d-attr-6-key" class="er entityLabel"/></g><rect height="14" width="54.296875" y="214.80233764648438" x="51.134063720703125" class="er relationshipLabelBox"/><text style="text-anchor: middle; dominant-baseline: middle; font-size: 12px;" y="221.80233764648438" x="78.28250122070312" id="rel1" class="er relationshipLabel">permissao</text><rect height="14" width="37.76171875" y="214.80233764648438" x="242.83660888671875" class="er relationshipLabelBox"/><text style="text-anchor: middle; dominant-baseline: middle; font-size: 12px;" y="221.80233764648438" x="261.71746826171875" id="rel2" class="er relationshipLabel">cliente</text></svg>